<svg width="884" height="713" viewBox="0 0 884 713" fill="none" xmlns="http://www.w3.org/2000/svg">
<path d="M294.489 499.97C267.506 499.97 240.563 499.487 213.661 498.521C175.22 497.14 135.471 495.714 98.525 475.222C72.6799 460.889 49.7901 437.893 32.3308 408.719C20.6613 388.944 12.1047 367.492 6.96154 345.114C-2.63239 304.373 -2.3056 261.924 7.91441 221.335C11.4959 207.419 16.4332 193.887 22.6555 180.934C49.5985 125.141 98.7404 87.6882 157.481 78.1804C157.966 78.1175 158.457 78.107 158.944 78.1492C159.209 78.1633 159.472 78.1785 159.74 78.1672L160.086 78.0574C160.972 77.7495 161.882 77.5159 162.807 77.3591C253.401 63.8723 349.172 91.1609 439.759 156.273C509.801 206.624 602.627 233.737 723.54 239.162L725.257 239.252C758.916 241.185 791.475 255.062 819.417 279.385C846.997 303.39 867.704 335.419 879.301 372.009C880.727 376.469 882.034 381.113 883.185 385.809C884.258 390.174 884.182 394.742 882.966 399.068C881.749 403.395 879.434 407.333 876.244 410.5V410.509L875.943 410.818C875.219 411.539 874.456 412.23 873.676 412.874L872.759 413.63C865.032 419.995 858.929 425.023 851.624 428.928C846.753 431.515 841.572 433.472 836.206 434.75C806.74 441.933 776.818 448.593 747.27 454.547C689.885 466.117 630.988 475.662 572.216 482.915C480.076 494.276 387.327 499.972 294.489 499.97ZM158.257 80.1253C158.077 80.1236 157.897 80.1358 157.718 80.1619C99.5262 89.5808 50.8495 126.666 24.1737 181.907C18.0128 194.731 13.1243 208.129 9.57844 221.907C-0.548446 262.136 -0.871161 304.208 8.63743 344.588C13.7302 366.751 22.2039 387.998 33.7608 407.584C51.0492 436.472 73.7049 459.238 99.279 473.42C135.893 493.727 175.455 495.148 213.715 496.521C333.378 500.797 453.191 495.582 572.03 480.927C630.765 473.678 689.623 464.139 746.97 452.576C776.499 446.628 806.4 439.972 835.846 432.793C841.082 431.547 846.139 429.638 850.893 427.114C858.05 423.288 864.095 418.307 871.748 412.003L872.665 411.248C873.335 410.694 873.993 410.102 874.623 409.487L874.804 409.298C881.093 402.959 883.539 394.595 881.514 386.353V386.352C880.374 381.706 879.081 377.112 877.67 372.697C853.98 297.951 792.696 245.128 725.174 241.25L723.466 241.16C668.235 238.681 619.903 231.816 575.715 220.17C522.965 206.267 476.914 185.34 438.839 157.969C348.597 93.1067 253.226 65.9197 163.028 79.3425C162.185 79.4879 161.356 79.7028 160.549 79.9851L159.926 80.1594C159.573 80.1753 159.218 80.171 158.865 80.1467C158.656 80.136 158.455 80.1253 158.257 80.1253Z" fill="#959191" fill-opacity="0.75"/>
<path d="M251.504 481.565C250.137 483.836 247.984 485.527 245.453 486.316C242.922 487.104 240.19 486.937 237.775 485.844C235.359 484.751 233.429 482.81 232.351 480.388C231.272 477.966 231.121 475.233 231.924 472.707L190.115 386.814L210.128 374.678L246.235 465.914C246.373 465.967 246.509 466.023 246.643 466.083C246.777 466.142 246.911 466.203 247.043 466.267L247.443 466.467C247.577 466.534 247.707 466.608 247.833 466.69C250.292 468.174 252.061 470.574 252.751 473.362C253.44 476.15 252.995 479.098 251.511 481.558L251.504 481.565Z" fill="#FEB8B8"/>
<path d="M198.096 419.933L227.796 412.32C227.796 412.32 226.826 410.128 225.25 406.496C223.674 402.864 221.472 397.796 218.995 392.05C216.518 386.304 213.77 379.876 211.085 373.525C208.4 367.174 205.785 360.9 203.591 355.462C201.397 350.024 198.891 346.762 196.384 344.941C194.306 343.362 191.689 342.666 189.101 343.005C187.09 343.304 185.168 344.036 183.466 345.15C182.661 345.651 181.904 346.226 181.204 346.867L174.318 359.39L198.096 419.933Z" fill="#CCCCCC"/>
<path d="M168.581 651.279L186.757 651.208L180.896 698.702L168.581 698.764V651.279Z" fill="#FEB8B8"/>
<path d="M165.441 710.713L205.128 710.503V710.003C205.128 708.984 205.028 707.968 204.828 706.969C204.438 704.998 203.661 703.124 202.54 701.456C201.403 699.765 199.945 698.314 198.248 697.185C196.575 696.072 194.697 695.303 192.723 694.921C191.723 694.728 190.706 694.635 189.688 694.641L165.438 694.76L165.441 710.713Z" fill="#2F2E41"/>
<path d="M226.779 651.054L244.903 650.983L239.061 698.412L226.78 698.474L226.779 651.054Z" fill="#FEB8B8"/>
<path d="M223.648 710.405L263.231 710.197V709.697C263.231 708.68 263.13 707.665 262.931 706.668C262.542 704.7 261.767 702.828 260.649 701.162C259.515 699.473 258.06 698.023 256.367 696.895C254.699 695.784 252.826 695.016 250.857 694.636C249.86 694.444 248.846 694.35 247.829 694.357L223.646 694.475L223.648 710.405Z" fill="#2F2E41"/>
<path d="M227.549 456.935L258.026 570.672L246.87 679.698L222.17 680.379L227.548 581.935L196.733 532.806L190.05 681.048L167.641 679.465L155.18 552.006C150.946 542.053 147.842 531.658 145.924 521.014C144.417 512.659 143.683 504.182 143.734 495.693C143.759 489.977 144.198 484.271 145.048 478.62C145.351 476.513 145.762 474.424 146.279 472.36L155.366 463.148L227.549 456.935Z" fill="#2F2E41"/>
<path d="M187.169 475.958C192.294 475.958 197.104 475.794 201.469 475.469C205.924 475.163 210.355 474.58 214.737 473.723C218.468 473.026 222.101 471.882 225.558 470.316C228.341 469.114 230.761 467.204 232.577 464.777L232.785 464.477L224.455 410.263L215.472 349.306C214.882 345.271 212.828 341.594 209.703 338.976C206.577 336.357 202.598 334.98 198.522 335.106L170.388 335.968C166.208 336.096 162.25 337.879 159.385 340.925C156.52 343.971 154.982 348.031 155.11 352.211C155.115 352.37 155.122 352.528 155.132 352.687L158.825 413.309L145.202 473.109L146.167 473.244C146.555 473.295 148.05 473.493 150.392 473.756C153.453 474.1 156.579 474.41 159.682 474.678C164.072 475.056 168.369 475.354 172.451 475.563C177.624 475.825 182.586 475.953 187.169 475.958Z" fill="#EBDAFD"/>
<path d="M202.781 324.336H202.803C203.995 324.333 205.138 323.858 205.98 323.015C206.822 322.171 207.295 321.028 207.295 319.836V294.755C207.3 290.261 206.401 285.812 204.651 281.673C201.225 273.594 194.813 267.149 186.751 263.683C181.654 261.496 176.093 260.608 170.568 261.098C165.043 261.588 159.726 263.44 155.093 266.489C150.459 269.538 146.654 273.689 144.019 278.569C141.383 283.45 139.999 288.908 139.99 294.455V319.576C139.989 320.18 140.111 320.779 140.346 321.336C140.808 322.421 141.671 323.287 142.756 323.752C143.313 323.989 143.912 324.113 144.517 324.115L202.781 324.336Z" fill="url(#paint0_linear_2394_2)"/>
<path d="M158.45 286.153C156.103 290.439 155.079 295.325 155.507 300.193C155.935 305.062 157.797 309.694 160.856 313.505C163.915 317.316 168.035 320.135 172.695 321.605C177.356 323.076 182.347 323.133 187.04 321.769C190.148 320.876 193.048 319.376 195.571 317.354C198.095 315.332 200.192 312.83 201.742 309.992C204.083 305.707 205.103 300.825 204.674 295.962C204.245 291.098 202.385 286.47 199.329 282.662C196.273 278.854 192.158 276.036 187.503 274.563C182.848 273.09 177.861 273.028 173.171 274.386C170.061 275.275 167.158 276.774 164.632 278.794C162.105 280.814 160.004 283.316 158.452 286.154L158.45 286.153Z" fill="#FEB8B8"/>
<path d="M215.252 296.797C215.255 293.243 214.543 289.724 213.16 286.451C210.451 280.063 205.381 274.968 199.008 272.227C195.738 270.825 192.219 270.096 188.662 270.083L183.642 270.058H183.473C176.452 270.062 169.721 272.855 164.759 277.823C159.798 282.79 157.013 289.525 157.018 296.546V297.046L167.638 297.089L171.259 286.972L171.983 297.109L177.468 297.133L179.294 292.033L179.66 297.144L215.247 297.303L215.252 296.797Z" fill="url(#paint1_linear_2394_2)"/>
<path d="M258.007 349.563C259.642 349.964 261.17 350.715 262.487 351.763C263.516 352.578 264.396 353.565 265.087 354.68C266.452 356.887 267.053 359.482 266.798 362.065C266.67 363.37 266.316 364.642 265.752 365.826C265.058 367.301 264.058 368.612 262.819 369.673C261.581 370.733 260.131 371.519 258.566 371.978C257.002 372.437 255.358 372.558 253.742 372.335C252.127 372.112 250.578 371.548 249.196 370.682C249.094 370.615 248.994 370.549 248.896 370.482C248.798 370.415 248.7 370.346 248.602 370.275C248.506 370.204 248.41 370.133 248.316 370.06C248.222 369.987 248.129 369.913 248.037 369.838L189.437 390.695C187.634 391.336 185.671 391.374 183.845 390.804C182.018 390.233 180.426 389.085 179.308 387.531L165.409 368.294L182.209 356.983L191.021 366.994L244.653 356.325C244.712 356.186 244.773 356.047 244.835 355.91C244.898 355.773 244.964 355.636 245.035 355.499C245.102 355.366 245.173 355.23 245.249 355.093C245.325 354.956 245.403 354.822 245.482 354.693C246.762 352.626 248.663 351.016 250.913 350.095C253.163 349.174 255.647 348.988 258.009 349.565L258.007 349.563Z" fill="#FEB8B8"/>
<path d="M190.077 360.676C188.324 358.488 185.877 355.648 183.383 352.83C180.889 350.012 178.366 347.22 176.459 345.13C174.552 343.04 173.27 341.657 173.27 341.657C171.51 338.997 168.884 337.027 165.837 336.084C162.79 335.14 159.51 335.281 156.555 336.481C153.6 337.681 151.151 339.867 149.625 342.668C148.099 345.469 147.589 348.712 148.183 351.846C148.522 353.65 149.223 355.368 150.243 356.894C150.243 356.894 152.155 359.394 155.043 363.13C157.931 366.866 161.79 371.836 165.685 376.778C169.58 381.72 173.513 386.637 176.545 390.266C179.577 393.895 181.712 396.24 182.012 396.039L192.589 364.597C192.888 364.395 191.83 362.864 190.077 360.676Z" fill="#EBDAFD"/>
<path d="M183.798 323.545C183.964 324.356 183.9 325.197 183.612 325.973C183.467 326.37 183.267 326.745 183.019 327.087C182.806 327.378 182.56 327.643 182.285 327.877C181.47 328.566 180.436 328.942 179.369 328.937C179.302 328.937 179.235 328.935 179.169 328.931C179.102 328.927 179.035 328.922 178.969 328.917C178.902 328.912 178.835 328.904 178.769 328.895C178.702 328.886 178.635 328.875 178.569 328.863L174.8 328.178L169.608 317.086V327.246L152.47 324.161V281.045L181.2 281.183L180.49 282.008C178.132 284.776 176.584 288.141 176.016 291.732C175.458 295.369 175.528 299.075 176.223 302.689C176.898 306.345 177.922 309.928 179.282 313.389C180.47 316.455 181.835 319.45 183.368 322.359C183.566 322.732 183.711 323.131 183.798 323.545Z" fill="url(#paint2_linear_2394_2)"/>
<path d="M817.154 712.818H78V710.713H818.245L817.154 712.818Z" fill="#CACACA"/>
<path d="M621.235 168.892H617.335V61.915C617.335 45.4941 610.811 29.7458 599.2 18.1345C587.589 6.52317 571.84 8.07647e-09 555.42 8.07647e-09H328.77C320.639 -0.000131315 312.588 1.60122 305.076 4.71262C297.564 7.82401 290.738 12.3845 284.989 18.1338C279.239 23.883 274.679 30.7084 271.567 38.2202C268.455 45.7321 266.854 53.7832 266.854 61.914V648.798C266.854 656.929 268.455 664.98 271.566 672.492C274.678 680.004 279.239 686.829 284.988 692.578C290.737 698.328 297.563 702.888 305.075 706C312.587 709.112 320.638 710.713 328.768 710.713H555.417C571.837 710.713 587.586 704.19 599.197 692.578C610.808 680.967 617.332 665.219 617.332 648.798V245.04H621.232L621.235 168.892Z" fill="#3F3D56"/>
<path d="M604.708 57.7684V652.943C604.706 665.394 599.76 677.333 590.958 686.138C582.155 694.942 570.216 699.891 557.766 699.895H326.466C314.011 699.897 302.066 694.952 293.257 686.147C284.448 677.342 279.497 665.398 279.493 652.943V57.7684C279.497 45.3139 284.447 33.3708 293.256 24.566C302.065 15.7613 314.01 10.8158 326.464 10.8174H354.522C353.144 14.2054 352.62 17.8799 352.995 21.518C353.37 25.1561 354.633 28.6464 356.673 31.6821C358.713 34.7178 361.467 37.206 364.694 38.9279C367.921 40.6498 371.521 41.5528 375.178 41.5574H507.046C510.704 41.5528 514.304 40.6498 517.531 38.9279C520.757 37.206 523.512 34.7178 525.551 31.6821C527.591 28.6464 528.854 25.1561 529.229 21.518C529.604 17.8799 529.08 14.2054 527.702 10.8174H557.757C570.207 10.8195 582.147 15.7656 590.951 24.5682C599.755 33.3708 604.704 45.3094 604.708 57.7594V57.7684Z" fill="white"/>
<path d="M444.58 295.874C418.246 295.884 392.986 285.433 374.357 266.819C355.728 248.206 345.255 222.955 345.243 196.62V196.532C345.243 196.324 345.243 196.105 345.255 195.897C345.555 141.497 390.118 97.1973 444.58 97.1973C470.926 97.1958 496.193 107.66 514.824 126.289C533.454 144.917 543.921 170.183 543.923 196.529C543.924 222.875 533.46 248.142 514.831 266.772C496.203 285.403 470.937 295.87 444.591 295.871H444.58V295.874ZM444.58 99.2873C418.906 99.3447 394.292 109.531 376.086 127.633C357.879 145.736 347.552 170.291 347.347 195.964C347.336 196.186 347.336 196.364 347.336 196.533C347.334 215.769 353.036 234.574 363.72 250.569C374.405 266.564 389.593 279.032 407.364 286.395C425.135 293.759 444.69 295.687 463.556 291.937C482.423 288.186 499.754 278.926 513.357 265.326C526.961 251.725 536.226 234.397 539.981 215.531C543.736 196.665 541.812 177.11 534.453 159.337C527.094 141.565 514.63 126.374 498.638 115.685C482.645 104.996 463.842 99.2897 444.606 99.2873H444.58Z" fill="#CCCCCC"/>
<path d="M547.302 400.317H341.765C340.756 400.316 339.788 399.914 339.075 399.201C338.361 398.487 337.96 397.52 337.959 396.511V345.527C337.96 344.518 338.362 343.55 339.075 342.837C339.789 342.123 340.756 341.722 341.765 341.721H547.302C548.311 341.722 549.278 342.123 549.992 342.837C550.705 343.55 551.107 344.518 551.108 345.527V396.512C551.107 397.521 550.705 398.488 549.992 399.201C549.278 399.915 548.311 400.316 547.302 400.318V400.317ZM341.765 343.243C341.159 343.243 340.579 343.484 340.151 343.912C339.722 344.34 339.482 344.921 339.481 345.527V396.512C339.482 397.117 339.722 397.698 340.151 398.126C340.579 398.554 341.159 398.795 341.765 398.796H547.302C547.908 398.795 548.488 398.554 548.916 398.126C549.345 397.698 549.585 397.117 549.586 396.512V345.527C549.585 344.921 549.345 344.34 548.916 343.912C548.488 343.484 547.908 343.243 547.302 343.243H341.765Z" fill="#E6E6E6"/>
<path d="M368.408 387.004C377.237 387.004 384.394 379.847 384.394 371.018C384.394 362.189 377.237 355.032 368.408 355.032C359.579 355.032 352.422 362.189 352.422 371.018C352.422 379.847 359.579 387.004 368.408 387.004Z" fill="#CCCCCC"/>
<path d="M405.329 360.361C404.622 360.361 403.944 360.642 403.444 361.142C402.945 361.641 402.664 362.319 402.664 363.026C402.664 363.732 402.945 364.41 403.444 364.91C403.944 365.41 404.622 365.69 405.329 365.69H530.934C531.64 365.717 532.328 365.463 532.846 364.983C533.365 364.502 533.672 363.836 533.699 363.129C533.726 362.423 533.471 361.735 532.991 361.216C532.511 360.698 531.844 360.391 531.138 360.364C531.099 360.363 531.06 360.362 531.021 360.362H405.329V360.361Z" fill="#E6E6E6"/>
<path d="M405.329 376.346C404.622 376.346 403.944 376.626 403.444 377.126C402.945 377.626 402.664 378.304 402.664 379.01C402.664 379.717 402.945 380.395 403.444 380.894C403.944 381.394 404.622 381.675 405.329 381.675H530.934C531.64 381.702 532.328 381.447 532.846 380.967C533.365 380.487 533.672 379.82 533.699 379.114C533.726 378.407 533.471 377.719 532.991 377.201C532.511 376.682 531.844 376.376 531.138 376.349C531.099 376.347 531.06 376.346 531.021 376.347L405.329 376.346Z" fill="#E6E6E6"/>
<path d="M547.302 485.576H341.765C340.756 485.575 339.788 485.174 339.075 484.461C338.361 483.747 337.96 482.78 337.959 481.771V430.786C337.96 429.777 338.362 428.81 339.075 428.097C339.789 427.383 340.756 426.982 341.765 426.98H547.302C548.311 426.982 549.278 427.383 549.992 428.097C550.705 428.81 551.107 429.777 551.108 430.786V481.771C551.106 482.78 550.705 483.747 549.991 484.461C549.278 485.174 548.311 485.575 547.302 485.576ZM341.765 428.503C341.159 428.503 340.579 428.744 340.151 429.172C339.722 429.6 339.482 430.181 339.481 430.786V481.771C339.482 482.377 339.722 482.958 340.151 483.386C340.579 483.814 341.159 484.055 341.765 484.055H547.302C547.908 484.055 548.488 483.814 548.916 483.386C549.345 482.958 549.585 482.377 549.586 481.771V430.786C549.585 430.181 549.345 429.6 548.916 429.172C548.488 428.744 547.908 428.503 547.302 428.503H341.765Z" fill="#E6E6E6"/>
<path d="M368.408 472.264C377.237 472.264 384.394 465.107 384.394 456.278C384.394 447.449 377.237 440.292 368.408 440.292C359.579 440.292 352.422 447.449 352.422 456.278C352.422 465.107 359.579 472.264 368.408 472.264Z" fill="#CCCCCC"/>
<path d="M405.329 445.617C404.622 445.617 403.944 445.898 403.444 446.398C402.945 446.897 402.664 447.575 402.664 448.282C402.664 448.988 402.945 449.666 403.444 450.166C403.944 450.665 404.622 450.946 405.329 450.946H530.934C531.63 450.942 532.298 450.666 532.793 450.176C533.288 449.686 533.572 449.021 533.583 448.325C533.594 447.628 533.333 446.955 532.854 446.449C532.375 445.943 531.717 445.645 531.021 445.618L405.329 445.617Z" fill="#E6E6E6"/>
<path d="M405.329 461.606C404.622 461.606 403.944 461.887 403.444 462.387C402.945 462.887 402.664 463.564 402.664 464.271C402.664 464.978 402.945 465.655 403.444 466.155C403.944 466.655 404.622 466.935 405.329 466.935H530.934C531.63 466.931 532.298 466.655 532.793 466.165C533.288 465.675 533.572 465.011 533.583 464.314C533.594 463.617 533.333 462.944 532.854 462.438C532.375 461.932 531.717 461.634 531.021 461.607L405.329 461.606Z" fill="#E6E6E6"/>
<path d="M547.302 570.834H341.765C340.756 570.833 339.788 570.432 339.075 569.718C338.361 569.005 337.96 568.037 337.959 567.028V516.044C337.96 515.035 338.362 514.068 339.075 513.354C339.789 512.641 340.756 512.24 341.765 512.238H547.302C548.311 512.24 549.278 512.641 549.992 513.354C550.705 514.068 551.107 515.035 551.108 516.044V567.029C551.107 568.038 550.705 569.006 549.992 569.719C549.278 570.433 548.311 570.834 547.302 570.835V570.834ZM341.765 513.76C341.159 513.761 340.579 514.002 340.151 514.43C339.722 514.858 339.482 515.439 339.481 516.044V567.029C339.482 567.635 339.722 568.216 340.151 568.644C340.579 569.072 341.159 569.313 341.765 569.313H547.302C547.908 569.313 548.488 569.072 548.916 568.644C549.345 568.216 549.585 567.635 549.586 567.029V516.044C549.585 515.439 549.345 514.858 548.916 514.43C548.488 514.002 547.908 513.761 547.302 513.76H341.765Z" fill="#E6E6E6"/>
<path d="M368.408 557.523C377.237 557.523 384.394 550.366 384.394 541.537C384.394 532.708 377.237 525.551 368.408 525.551C359.579 525.551 352.422 532.708 352.422 541.537C352.422 550.366 359.579 557.523 368.408 557.523Z" fill="#CCCCCC"/>
<path d="M405.329 530.878C404.622 530.878 403.944 531.159 403.444 531.658C402.945 532.158 402.664 532.836 402.664 533.542C402.664 534.249 402.945 534.927 403.444 535.427C403.944 535.926 404.622 536.207 405.329 536.207H530.934C531.64 536.234 532.328 535.979 532.846 535.499C533.365 535.019 533.672 534.352 533.699 533.646C533.726 532.94 533.471 532.252 532.991 531.733C532.511 531.214 531.844 530.908 531.138 530.881C531.099 530.879 531.06 530.879 531.021 530.879L405.329 530.878Z" fill="#E6E6E6"/>
<path d="M405.329 546.865C404.622 546.865 403.944 547.146 403.444 547.646C402.945 548.145 402.664 548.823 402.664 549.53C402.664 550.236 402.945 550.914 403.444 551.414C403.944 551.914 404.622 552.194 405.329 552.194H530.934C531.283 552.208 531.632 552.152 531.96 552.031C532.289 551.909 532.59 551.724 532.846 551.486C533.103 551.249 533.311 550.963 533.457 550.645C533.603 550.327 533.685 549.983 533.699 549.633C533.712 549.284 533.656 548.935 533.535 548.606C533.414 548.278 533.229 547.977 532.991 547.72C532.753 547.464 532.467 547.256 532.149 547.11C531.831 546.964 531.487 546.882 531.138 546.868C531.099 546.867 531.06 546.866 531.021 546.866L405.329 546.865Z" fill="#E6E6E6"/>
<path d="M321.369 432.475H359.262C361.632 414.987 356.403 398.661 359.262 387.003H321.369C314.235 402.162 314.235 417.319 321.369 432.475Z" fill="#EBDAFD"/>
<path d="M567.38 520.222H529.486C530.907 502.738 535.486 486.411 529.486 474.75H567.379C574.514 489.907 574.514 505.064 567.38 520.222Z" fill="#7E5AD2"/>
<path d="M497.288 608.323H459.394C460.815 590.839 465.394 574.512 459.394 562.851H497.287C504.421 578.007 504.422 593.165 497.288 608.323Z" fill="#7E5AD2"/>
<path d="M495.346 282.216C479.768 291.666 461.784 296.394 443.573 295.828C425.363 295.262 407.707 289.426 392.746 279.027C395.884 272.427 400.827 266.85 407.004 262.944C413.181 259.039 420.338 256.963 427.646 256.958H459.104C467.004 256.957 474.714 259.379 481.194 263.896C487.675 268.413 492.615 274.808 495.348 282.22L495.346 282.216Z" fill="#7E5AD2"/>
<path d="M401.669 191.019C406.427 175.856 417.247 161.949 432.21 156.819C447.173 151.689 473.278 156.484 480.335 170.713C490.504 191.22 485.935 216.333 480.543 238.598C477.731 238.449 474.893 238.332 472.043 238.226L468.017 224.807V238.094C445.802 237.407 422.674 237.837 399.534 238.282C397.464 222.522 396.911 206.182 401.669 191.019Z" fill="url(#paint3_linear_2394_2)"/>
<path d="M434.271 239.828C453.086 239.828 468.338 224.576 468.338 205.761C468.338 186.947 453.086 171.694 434.271 171.694C415.456 171.694 400.204 186.947 400.204 205.761C400.204 224.576 415.456 239.828 434.271 239.828Z" fill="#FEB8B8"/>
<path d="M412.05 164.717C418.216 160.958 425.279 158.924 432.5 158.829C439.722 158.733 446.836 160.58 453.099 164.175C459.362 167.771 464.545 172.983 468.104 179.267C471.664 185.551 473.469 192.675 473.333 199.896C455.394 200.721 436.55 200.936 417.443 200.973L412.924 189.92L410.262 200.98C404.44 200.98 398.606 200.972 392.762 200.957C392.524 193.757 394.18 186.62 397.565 180.26C400.949 173.901 405.944 168.541 412.05 164.717Z" fill="url(#paint4_linear_2394_2)"/>
<path d="M752.283 680.652C752.016 690.637 750.343 700.534 747.315 710.052C747.246 710.273 747.173 710.491 747.101 710.711H728.558C728.578 710.511 728.598 710.292 728.617 710.052C729.853 695.839 736.981 609.336 728.459 594.543C729.205 595.744 753.717 635.491 752.283 680.652Z" fill="#668557"/>
<path d="M749.307 709.334C748.983 709.796 748.645 710.258 748.3 710.713H719.212C719.433 710.32 719.688 709.858 719.984 709.334C724.79 700.66 739.013 674.734 752.217 647.847C766.406 618.958 779.423 588.974 778.327 578.121C778.664 580.569 788.479 655.183 749.307 709.334Z" fill="#41693B"/>
<path d="M770.484 287.342L752.665 268.793C751.798 267.883 750.76 267.153 749.61 266.645C748.46 266.138 747.221 265.862 745.965 265.833L745.9 265.832C744.634 265.802 743.375 266.023 742.195 266.483C741.015 266.944 739.938 267.633 739.026 268.512C734.825 272.544 732.351 278.048 732.123 283.867C731.896 289.685 733.933 295.365 737.806 299.713C737.993 299.927 738.189 300.133 738.384 300.34C739.468 301.475 740.67 302.491 741.971 303.37C745.526 305.803 749.712 307.151 754.019 307.251L754.156 307.255C757.112 307.323 760.052 306.804 762.807 305.729C765.561 304.654 768.075 303.043 770.203 300.989C772.047 299.215 773.112 296.782 773.165 294.224C773.218 291.666 772.254 289.191 770.484 287.342ZM769.092 299.826C765.605 303.158 761.075 305.187 756.266 305.569C751.457 305.952 746.663 304.665 742.693 301.925C741.557 301.13 740.501 300.227 739.54 299.228C735.7 295.23 733.606 289.87 733.718 284.328C733.83 278.786 736.139 273.515 740.137 269.676C740.897 268.941 741.796 268.365 742.781 267.981C743.766 267.597 744.817 267.413 745.874 267.439L745.922 267.44C746.968 267.464 748 267.694 748.957 268.117C749.914 268.54 750.779 269.147 751.502 269.904L769.321 288.461C770.796 290 771.6 292.06 771.558 294.191C771.515 296.322 770.628 298.348 769.092 299.826Z" fill="#3F3D56"/>
<path d="M712.018 226.463L694.199 207.906C692.445 206.071 690.036 205.007 687.498 204.946L687.442 204.945C686.174 204.916 684.913 205.139 683.732 205.601C682.551 206.062 681.473 206.753 680.56 207.633C677.086 210.979 674.776 215.349 673.967 220.103C673.158 224.857 673.893 229.745 676.065 234.051L676.072 234.06C676.969 235.821 678.096 237.455 679.426 238.917C679.574 239.098 679.746 239.279 679.918 239.461C684.009 243.743 689.632 246.228 695.553 246.372L695.697 246.376C698.654 246.442 701.594 245.922 704.349 244.845C707.103 243.768 709.617 242.156 711.745 240.103C712.659 239.225 713.391 238.176 713.899 237.016C714.407 235.855 714.681 234.606 714.707 233.339C714.732 232.073 714.508 230.814 714.046 229.634C713.585 228.454 712.896 227.377 712.018 226.463ZM710.626 238.947C708.651 240.853 706.318 242.349 703.761 243.348C701.205 244.347 698.476 244.83 695.732 244.769L695.595 244.765C691.475 244.654 687.479 243.328 684.11 240.952C680.742 238.576 678.151 235.258 676.664 231.414C675.176 227.569 674.859 223.371 675.751 219.347C676.644 215.323 678.706 211.652 681.679 208.797C683.217 207.322 685.278 206.518 687.408 206.56C689.539 206.603 691.566 207.49 693.043 209.025L710.863 227.575C712.337 229.115 713.14 231.178 713.095 233.31C713.051 235.442 712.163 237.469 710.626 238.947Z" fill="#3F3D56"/>
<path d="M771.503 293.053L751.858 272.595C750.57 271.257 748.803 270.484 746.946 270.446C745.088 270.408 743.292 271.109 741.95 272.394C740.272 274.002 738.927 275.925 737.993 278.053C737.058 280.181 736.552 282.472 736.504 284.796C736.455 287.119 736.866 289.43 737.711 291.595C738.556 293.76 739.819 295.737 741.429 297.413C743.039 299.09 744.963 300.432 747.092 301.365C749.221 302.297 751.513 302.8 753.837 302.846C756.16 302.892 758.47 302.479 760.634 301.632C762.798 300.784 764.774 299.518 766.449 297.907L771.503 293.053Z" fill="#7E5AD2"/>
<path d="M713.041 232.17L693.396 211.712C692.108 210.374 690.341 209.601 688.484 209.563C686.626 209.526 684.83 210.226 683.488 211.512C681.81 213.119 680.465 215.042 679.531 217.17C678.596 219.298 678.09 221.589 678.042 223.913C677.994 226.237 678.404 228.547 679.249 230.712C680.094 232.877 681.357 234.854 682.967 236.531C684.577 238.207 686.501 239.55 688.63 240.482C690.759 241.414 693.051 241.917 695.375 241.963C697.698 242.009 700.008 241.596 702.172 240.749C704.336 239.901 706.312 238.635 707.987 237.024L713.041 232.17Z" fill="#7E5AD2"/>
<path d="M749.007 304.874L748.491 306.131C746.247 305.211 744.074 304.291 741.97 303.369C704.705 286.999 687.197 268.53 676.072 234.059L676.064 234.051C675.536 232.429 675.025 230.769 674.531 229.073L675.812 228.697C676.193 230.326 676.773 231.902 677.537 233.39C678.146 235.28 678.776 237.122 679.425 238.917C689.968 268.041 706.206 284.956 737.805 299.713C739.393 300.454 741.022 301.192 742.692 301.925C744.617 303.253 746.752 304.25 749.007 304.874Z" fill="#3F3D56"/>
<path d="M692.886 244.838L691.726 245.952L732.371 288.28L733.531 287.166L692.886 244.838Z" fill="#3F3D56"/>
<path d="M780.335 467.439L685.758 491.321C684.414 491.657 682.992 491.447 681.802 490.737C680.613 490.027 679.752 488.875 679.41 487.533L667.773 441.449C667.437 440.105 667.647 438.683 668.357 437.494C669.067 436.304 670.219 435.444 671.561 435.101L766.138 411.219C767.482 410.884 768.904 411.094 770.094 411.804C771.283 412.513 772.143 413.665 772.486 415.007L784.123 461.091C784.458 462.435 784.248 463.857 783.539 465.047C782.829 466.236 781.677 467.096 780.335 467.439Z" fill="white"/>
<path d="M780.335 467.439L685.758 491.321C684.414 491.657 682.992 491.447 681.802 490.737C680.613 490.027 679.752 488.875 679.41 487.533L667.773 441.449C667.437 440.105 667.647 438.683 668.357 437.494C669.067 436.304 670.219 435.444 671.561 435.101L766.138 411.219C767.482 410.884 768.904 411.094 770.094 411.804C771.283 412.513 772.143 413.665 772.486 415.007L784.123 461.091C784.458 462.435 784.248 463.857 783.539 465.047C782.829 466.236 781.677 467.096 780.335 467.439ZM671.919 436.515C670.951 436.762 670.12 437.383 669.609 438.241C669.097 439.098 668.945 440.124 669.187 441.093L680.823 487.175C681.071 488.143 681.691 488.974 682.549 489.485C683.407 489.997 684.432 490.149 685.402 489.907L779.976 466.026C780.944 465.778 781.775 465.158 782.287 464.3C782.799 463.442 782.951 462.416 782.709 461.447L771.072 415.365C770.825 414.397 770.205 413.567 769.347 413.055C768.489 412.543 767.463 412.392 766.494 412.633L671.919 436.515Z" fill="#3F3D56"/>
<path d="M736.396 471.289C717.743 475.999 698.249 480.732 690.963 482.449C690.003 482.671 688.995 482.508 688.153 481.996C687.312 481.485 686.704 480.664 686.459 479.71L676.826 441.563C676.74 441.221 676.793 440.859 676.974 440.556C677.154 440.253 677.447 440.034 677.789 439.946L762.955 418.44C763.297 418.355 763.66 418.408 763.963 418.588C764.266 418.768 764.485 419.061 764.573 419.403L771.108 445.285C772.159 449.513 771.51 453.986 769.302 457.742C767.093 461.498 763.5 464.239 759.294 465.377C752.553 467.173 744.553 469.23 736.396 471.289Z" fill="#EBDAFD"/>
<path d="M764.16 444.509L687.205 463.941C686.561 464.102 685.882 464.061 685.262 463.822C684.641 463.584 684.109 463.161 683.738 462.609L668.857 440.373C668.57 439.944 668.391 439.453 668.333 438.94C668.276 438.427 668.342 437.908 668.527 437.426C668.711 436.944 669.009 436.514 669.394 436.171C669.78 435.828 670.242 435.583 670.742 435.455L766.901 411.032C767.358 410.916 767.835 410.902 768.298 410.99C768.761 411.078 769.199 411.267 769.582 411.543C769.964 411.82 770.281 412.176 770.511 412.588C770.74 413 770.876 413.458 770.91 413.928L770.992 413.941L770.879 414.655L770.878 414.662L766.552 441.89C766.454 442.513 766.175 443.094 765.75 443.559C765.325 444.025 764.772 444.355 764.16 444.509ZM767.262 412.444L671.102 436.868C670.828 436.938 670.575 437.073 670.364 437.26C670.152 437.448 669.989 437.684 669.888 437.948C669.787 438.212 669.751 438.496 669.782 438.777C669.814 439.058 669.912 439.327 670.069 439.562L684.949 461.798C685.153 462.1 685.444 462.332 685.784 462.462C686.124 462.593 686.496 462.615 686.849 462.527L763.803 443.095C764.138 443.011 764.441 442.83 764.673 442.575C764.906 442.321 765.059 442.003 765.112 441.662L769.438 414.433C769.484 414.145 769.457 413.849 769.361 413.573C769.264 413.298 769.101 413.05 768.885 412.853C768.67 412.656 768.408 412.515 768.125 412.444C767.842 412.373 767.545 412.373 767.262 412.444Z" fill="#3F3D56"/>
<path d="M727.833 459.341C731.161 458.5 733.177 455.121 732.337 451.793C731.497 448.465 728.117 446.449 724.789 447.289C721.462 448.129 719.445 451.508 720.285 454.836C721.126 458.164 724.505 460.181 727.833 459.341Z" fill="white"/>
<defs>
<linearGradient id="paint0_linear_2394_2" x1="173.643" y1="260.967" x2="173.643" y2="324.336" gradientUnits="userSpaceOnUse">
<stop stop-color="#321C05"/>
<stop offset="1" stop-color="#59330C"/>
</linearGradient>
<linearGradient id="paint1_linear_2394_2" x1="186.135" y1="270.058" x2="186.135" y2="297.303" gradientUnits="userSpaceOnUse">
<stop stop-color="#321C05"/>
<stop offset="1" stop-color="#6D3C08"/>
</linearGradient>
<linearGradient id="paint2_linear_2394_2" x1="168.179" y1="281.045" x2="168.179" y2="328.937" gradientUnits="userSpaceOnUse">
<stop stop-color="#452809"/>
<stop offset="1" stop-color="#532F0A"/>
</linearGradient>
<linearGradient id="paint3_linear_2394_2" x1="442.195" y1="154.821" x2="442.195" y2="238.598" gradientUnits="userSpaceOnUse">
<stop stop-color="#321C05"/>
<stop offset="1" stop-color="#66450B"/>
</linearGradient>
<linearGradient id="paint4_linear_2394_2" x1="433.04" y1="158.825" x2="433.04" y2="200.98" gradientUnits="userSpaceOnUse">
<stop stop-color="#321C05"/>
<stop offset="1" stop-color="#6C4B0A"/>
</linearGradient>
</defs>
</svg>
